<svg width="38" height="38" viewBox="0 0 38 38" fill="none" xmlns="http://www.w3.org/2000/svg">
<path d="M22.9765 9H20.8932C19.2994 9 18.1545 9.37833 17.4588 10.1347C16.7628 10.8914 16.4151 12.0057 16.4151 13.4783V14.8819C16.4151 15.2528 16.1145 15.5535 15.7436 15.5535H15.0236C14.6527 15.5535 14.3521 15.8541 14.3521 16.225V18.3284C14.3521 18.6993 14.6527 19 15.0236 19H15.7436C16.1145 19 16.4151 19.3006 16.4151 19.6716V28.3284C16.4151 28.6993 16.7158 29 17.0867 29H19.8818C20.2527 29 20.5534 28.6993 20.5534 28.3284V19.6716C20.5534 19.3006 20.8541 19 21.225 19H22.6366C23.0076 19 23.3398 18.701 23.3787 18.3322L23.6017 16.2212C23.6406 15.8523 23.3716 15.5535 23.0006 15.5535H21.2247C20.8538 15.5535 20.5532 15.2528 20.5532 14.8819V13.8302C20.5532 13.5714 20.5653 13.3711 20.5896 13.2294C20.6138 13.0879 20.6684 12.9484 20.7535 12.8107C20.8383 12.6733 20.976 12.5782 21.1661 12.5255C21.3561 12.4729 21.6091 12.4465 21.9245 12.4465H22.9762C23.3471 12.4465 23.6477 12.1459 23.6477 11.7749V9.67158C23.648 9.30064 23.3474 9 22.9765 9Z" fill="white"/>
</svg>
