<svg width="208" height="166" viewBox="0 0 208 166" fill="none" xmlns="http://www.w3.org/2000/svg">
<mask id="path-1-inside-1_259_49474" fill="white">
<path d="M161.776 -4.41722e-06L161.776 8.29884L169.483 8.29884L169.483 16.5977L177.185 16.5977L177.185 24.9012L184.888 24.9012L184.888 33.2L192.59 33.2L192.59 41.4989L200.297 41.4989L200.297 49.7977L208 49.7977L208 58.1012L200.297 58.1012L200.297 66.4L192.59 66.4L192.59 74.6989L184.888 74.6989L184.888 82.9977L177.185 82.9977L177.185 91.3012L169.483 91.3012L169.483 99.6L161.776 99.6L161.776 107.899L154.073 107.899L154.073 116.198L146.371 116.198L146.371 124.501L138.668 124.501L138.668 132.8L130.961 132.8L130.961 141.099L123.259 141.099L123.259 149.402L115.556 149.402L115.556 157.701L107.853 157.701L107.853 166L100.147 166L100.147 157.701L92.444 157.701L92.444 149.402L84.7414 149.402L84.7414 141.099L77.0388 141.099L77.0388 132.8L69.3362 132.8L69.3362 124.501L61.6293 124.501L61.6293 116.198L53.9267 116.198L53.9267 107.899L46.2241 107.899L46.2241 99.6L38.5172 99.6L38.5173 91.3011L30.8147 91.3011L30.8147 82.9977L23.1121 82.9977L23.1121 74.6988L15.4095 74.6988L15.4095 66.4L7.7026 66.4L7.7026 58.1012L1.0612e-05 58.1012L1.12761e-05 49.7976L7.7026 49.7976L7.7026 41.4988L15.4095 41.4988L15.4095 33.2L23.1121 33.2L23.1121 24.9012L30.8147 24.9012L30.8147 16.5976L38.5173 16.5976L38.5173 8.29883L46.2241 8.29883L46.2241 -1.54594e-05L53.9267 -1.47234e-05L53.9267 8.29883L61.6293 8.29883L61.6293 16.5977L69.3362 16.5977L69.3362 24.9012L77.0388 24.9012L77.0388 33.2L84.7414 33.2L84.7414 41.4988L77.0388 41.4988L77.0388 49.7977L69.3362 49.7977L69.3362 41.4988L61.6293 41.4988L61.6293 33.2L53.9267 33.2L53.9267 24.9012L46.2241 24.9012L46.2241 33.2L38.5173 33.2L38.5173 41.4988L30.8147 41.4988L30.8147 49.7977L23.1121 49.7977L23.1121 58.1012L30.8147 58.1012L30.8147 66.4L38.5173 66.4L38.5173 74.6988L46.2241 74.6988L46.2241 82.9977L53.9267 82.9977L53.9267 91.3011L61.6293 91.3011L61.6293 99.6L69.3362 99.6L69.3362 107.899L77.0388 107.899L77.0388 116.198L84.7414 116.198L84.7414 124.501L92.444 124.501L92.444 132.8L100.147 132.8L100.147 141.099L107.853 141.099L107.853 132.8L115.556 132.8L115.556 124.501L123.259 124.501L123.259 116.198L130.961 116.198L130.961 107.899L138.668 107.899L138.668 99.6L146.371 99.6L146.371 91.3012L154.073 91.3012L154.073 82.9977L161.776 82.9977L161.776 74.6988L169.483 74.6988L169.483 66.4L177.185 66.4L177.185 58.1012L184.888 58.1012L184.888 49.7977L177.185 49.7977L177.185 41.4988L169.483 41.4988L169.483 33.2L161.776 33.2L161.776 24.9012L154.073 24.9012L154.073 33.2L146.371 33.2L146.371 41.4988L138.668 41.4988L138.668 49.7977L130.961 49.7977L130.961 41.4988L123.259 41.4988L123.259 33.2L130.961 33.2L130.961 24.9012L138.668 24.9012L138.668 16.5977L146.371 16.5977L146.371 8.29884L154.073 8.29884L154.073 -5.15328e-06L161.776 -4.41722e-06Z"/>
</mask>
<path d="M161.776 -4.41722e-06L161.776 8.29884L169.483 8.29884L169.483 16.5977L177.185 16.5977L177.185 24.9012L184.888 24.9012L184.888 33.2L192.59 33.2L192.59 41.4989L200.297 41.4989L200.297 49.7977L208 49.7977L208 58.1012L200.297 58.1012L200.297 66.4L192.59 66.4L192.59 74.6989L184.888 74.6989L184.888 82.9977L177.185 82.9977L177.185 91.3012L169.483 91.3012L169.483 99.6L161.776 99.6L161.776 107.899L154.073 107.899L154.073 116.198L146.371 116.198L146.371 124.501L138.668 124.501L138.668 132.8L130.961 132.8L130.961 141.099L123.259 141.099L123.259 149.402L115.556 149.402L115.556 157.701L107.853 157.701L107.853 166L100.147 166L100.147 157.701L92.444 157.701L92.444 149.402L84.7414 149.402L84.7414 141.099L77.0388 141.099L77.0388 132.8L69.3362 132.8L69.3362 124.501L61.6293 124.501L61.6293 116.198L53.9267 116.198L53.9267 107.899L46.2241 107.899L46.2241 99.6L38.5172 99.6L38.5173 91.3011L30.8147 91.3011L30.8147 82.9977L23.1121 82.9977L23.1121 74.6988L15.4095 74.6988L15.4095 66.4L7.7026 66.4L7.7026 58.1012L1.0612e-05 58.1012L1.12761e-05 49.7976L7.7026 49.7976L7.7026 41.4988L15.4095 41.4988L15.4095 33.2L23.1121 33.2L23.1121 24.9012L30.8147 24.9012L30.8147 16.5976L38.5173 16.5976L38.5173 8.29883L46.2241 8.29883L46.2241 -1.54594e-05L53.9267 -1.47234e-05L53.9267 8.29883L61.6293 8.29883L61.6293 16.5977L69.3362 16.5977L69.3362 24.9012L77.0388 24.9012L77.0388 33.2L84.7414 33.2L84.7414 41.4988L77.0388 41.4988L77.0388 49.7977L69.3362 49.7977L69.3362 41.4988L61.6293 41.4988L61.6293 33.2L53.9267 33.2L53.9267 24.9012L46.2241 24.9012L46.2241 33.2L38.5173 33.2L38.5173 41.4988L30.8147 41.4988L30.8147 49.7977L23.1121 49.7977L23.1121 58.1012L30.8147 58.1012L30.8147 66.4L38.5173 66.4L38.5173 74.6988L46.2241 74.6988L46.2241 82.9977L53.9267 82.9977L53.9267 91.3011L61.6293 91.3011L61.6293 99.6L69.3362 99.6L69.3362 107.899L77.0388 107.899L77.0388 116.198L84.7414 116.198L84.7414 124.501L92.444 124.501L92.444 132.8L100.147 132.8L100.147 141.099L107.853 141.099L107.853 132.8L115.556 132.8L115.556 124.501L123.259 124.501L123.259 116.198L130.961 116.198L130.961 107.899L138.668 107.899L138.668 99.6L146.371 99.6L146.371 91.3012L154.073 91.3012L154.073 82.9977L161.776 82.9977L161.776 74.6988L169.483 74.6988L169.483 66.4L177.185 66.4L177.185 58.1012L184.888 58.1012L184.888 49.7977L177.185 49.7977L177.185 41.4988L169.483 41.4988L169.483 33.2L161.776 33.2L161.776 24.9012L154.073 24.9012L154.073 33.2L146.371 33.2L146.371 41.4988L138.668 41.4988L138.668 49.7977L130.961 49.7977L130.961 41.4988L123.259 41.4988L123.259 33.2L130.961 33.2L130.961 24.9012L138.668 24.9012L138.668 16.5977L146.371 16.5977L146.371 8.29884L154.073 8.29884L154.073 -5.15328e-06L161.776 -4.41722e-06Z" stroke="#3B465B" stroke-width="2" mask="url(#path-1-inside-1_259_49474)"/>
</svg>
