<svg width="115" height="66" viewBox="0 0 115 66" fill="none" xmlns="http://www.w3.org/2000/svg">
<g clip-path="url(#clip0_259_46347)">
<path d="M77.5 1.50002H77.9C79.1 1.60002 80.4999 2.20002 81.5999 3.10002C82.6999 4.00002 83 4.80002 83 5.10002C82.9 5.90002 81.7999 7.30002 81.0999 8.30002C80.3999 9.20002 79.7 10.1 79.4 11.7L79.1999 13.7C79.2999 17.6 83.3999 17.9 85.0999 18.1L87.5999 18.3L96.5999 19.1C97.1999 19.2 97.8 19.5 98.3 20C98.7 20.5 98.9 21.1 98.9 21.8L98.4 27.9L98.1999 30.5L98 33.3V33.6C97.7999 35.2 97.5999 38.2 100.1 39.5C100.7 39.8 101.4 39.9 102 40L103 40.1C104.3 40.1 105.5 39.8 106.9 39C107.9 38.5 109.4 37.7 110.3 37.7H110.4C110.7 37.7 111.5 38.2 112.1 39.4C112.773 40.5847 113.086 41.9401 113 43.3C112.8 45.8 110.6 48.4 109.4 48.4C108.5 48.3 107.7 47.7 106.8 46.9C106 46.3 105.3 45.6 104.3 45.2C103.7 44.9 103.1 44.8 102.6 44.8L101.3 44.7C100 44.7 98.9 45.2 98 46.2C96.7 47.7 96.6 49.1 96.4 50.6L96.3 51.5L96.1999 53L95.4 62C95.2 63 94.2 64 92.9 64H92.6999L88.9 63.7H88.6999L85.5999 63.4L82.5 63.1L81.4 63C80.3 62.9 78.4999 62.9 78.0999 62.3C77.7999 61.9 77.9 61.1 78 60.3C78.1 59.5 78.3999 58.9 79.0999 58C80.1999 56.6 81.4999 54.9 81.5999 53.2C81.6999 51.7 80.7999 50 79.0999 48.6C77.5861 47.3647 75.7436 46.5998 73.8 46.4H73.0999C69.4999 46.4 65.2 48.8 64.9 51.8C64.7 53.6 65.7 55.3 66.4 56.6L66.8 57.4C67.4 58.5 67.4 59.8 67 61C66.9 61.2 66.6999 61.7 65.1999 61.7L63.2 61.5L62.2999 61.4L54.5 60.7C54.9 59.7 55 58.7 54.9 57.6V57.4L54.5 52.3L54.0999 47.2L54 46.1L53.9 44.8L54.4 44.9L55.9 45.6C57.2 46.3 58.8999 47.3 61.0999 47.3H61.5999C66.1999 46.9 69.4 40.8 69 36.1C68.6 31.6 64.6999 26.3 60.2999 26.3H59.7999C57.7428 26.5514 55.8354 27.5051 54.4 29C54.0392 29.349 53.636 29.6514 53.2 29.9L52.9 30H52.7V29.8L52.7999 28.8L52.9 27.7L53.2 24.6L53.7999 17.9C53.8713 17.3071 54.1525 16.7593 54.5927 16.3558C55.033 15.9523 55.6031 15.7196 56.2 15.7H56.4L57.2999 15.8L58.0999 15.9L60.7999 16.1L65.6999 16.5L66.9 16.7L69.5999 17C71.3999 17 72.6999 16.5 73.5999 15.4C74.1999 14.7 74.4 13.9 74.5 13.3C74.7 12.1 74.6999 11 74.5999 10.2C74.4999 9.40002 74.1 8.80002 73.8 8.20002L73.5999 7.80002C72.9999 6.70002 72.2 5.10002 72.3 4.30002C72.4 3.30002 74.7999 1.50002 77.5 1.50002ZM77.5 2.44156e-05C74.4 2.44156e-05 71 2.00002 70.8 4.00002C70.7 5.20002 71.6 6.90002 72.3 8.30002C72.6 8.90003 72.9999 9.50002 73.1999 10.2C73.2999 11 73.2999 12 73.0999 12.8C72.9999 13.3 72.8999 13.8 72.5999 14.1C71.8999 14.9 70.8999 15.2 69.6999 15.2C68.3999 15.2 67 14.9 65.9 14.8L58.2999 14.1L56.5999 13.9H56.2999C55.3222 13.9196 54.3855 14.2967 53.6669 14.96C52.9483 15.6233 52.4976 16.5269 52.4 17.5L51.5 27.4L51.2 29.6V29.7C51.3 30.3 51.4 30.6 51.9 31.1C52 31.3 52.1 31.3 52.4 31.3L53.2999 31.2L53.7999 31.1C54.2999 30.9 54.9 30.4 55.5 29.9C56.6 28.9 57.9999 27.8 60.0999 27.6H60.5C64.1 27.6 67.3999 32.2 67.6999 36.1C68.0999 40.2 65.4 45.4 61.7 45.7H61.2999C59.6928 45.6114 58.1388 45.0934 56.7999 44.2L54.9 43.3L54 43.2C53.2 43.2 52.8 43.4 52.7 43.5C52.4 43.9 52.6 45.6 52.7 46.3L52.7999 47.3L53.2 52.4L53.5999 57.5V57.7C53.6999 59.9 52.8 61.3 52.2 61.9H52.2999L62.2 62.8C63 62.9 64.2 63.1 65.3 63.1C66.7 63.1 68 62.8 68.5 61.4C69.1 59.9 68.9999 58.1 68.1999 56.6C67.4999 55.2 66.3 53.6 66.4 51.9C66.6 49.9 69.8999 47.9 73.0999 47.9H73.6999C75.1999 48 76.7999 48.7 78.1999 49.8C79.4999 50.9 80.2999 52.1 80.1999 53.1C80.0999 54.3 78.9 55.9 78 57.1C77.2999 58.1 76.7999 58.8 76.5999 60.1C76.3999 61.1 76.2999 62.3 77 63.2C78.1 64.6 80.8 64.4 82.4 64.6L88.5 65.1L92.4 65.4H92.6999C93.6777 65.3805 94.6144 65.0034 95.333 64.34C96.0517 63.6767 96.5023 62.7731 96.5999 61.8L97.4 52.8L97.5999 50.3C97.6999 48.9 97.8 47.9 98.8 46.8C99.5 46 100.1 45.8 101 45.8L102.1 45.9C102.6 46 103 46 103.4 46.2C105.3 47.1 106.7 49.3 109 49.5H109.2C111.3 49.5 114 46.1 114.2 43.1C114.3 41.6 113.9 39.9 113.1 38.4C112.3 36.9 111.2 36 110.2 35.9H110C108.8 35.9 107.2 36.7 105.9 37.4C104.8 38 103.8 38.3 102.7 38.3L101.8 38.2C101.3 38.1 100.8 38.1 100.4 37.9C98.7 37.1 98.9999 34.8 99.1999 33.2L99.6999 27.8L100.2 21.7C100.284 20.6544 99.9531 19.6178 99.2797 18.8135C98.6063 18.0092 97.644 17.5016 96.5999 17.4L87.5999 16.6L85.0999 16.4C83.1999 16.2 80.6 15.9 80.5 13.5L80.6999 11.8C80.8999 10.7 81.3999 10 82.0999 9.10003C82.9999 7.90003 84.2 6.40002 84.3 5.10002C84.4 4.10002 83.6 2.90002 82.3 1.80002C81.0312 0.71872 79.4597 0.0552087 77.8 -0.0999756C77.9 2.44156e-05 77.7 2.44156e-05 77.5 2.44156e-05Z" fill="#888686"/>
<path d="M22.7999 1.5C25.4999 1.5 27.8999 3.3 27.9999 4.1C28.0999 4.9 27.1999 6.5 26.6999 7.6C26.1999 8.6 25.5999 9.7 25.5999 11.2C25.5999 11.8 25.5999 12.5 25.7999 13.2C26.0999 14.8 27.1999 16.6 30.7999 16.6L33.1999 16.4L33.9999 16.3L39.0999 15.9L43.7999 15.5H43.9999C45.1999 15.5 46.2999 16.5 46.3999 17.7L46.5999 19.9L46.7999 22.1L46.9999 24.8L47.2999 28L47.4999 30.2C47.5999 31.6 48.0999 32.7 49.0999 33.8C49.9999 34.7 50.9999 35.2 52.2999 35.2L53.8999 35L54.9999 34.7C56.0999 34.3 56.9999 33.5 57.7999 32.9C58.6999 32.2 59.3999 31.5 60.3999 31.4C61.4999 31.4 63.6999 34 63.8999 36.5C64.0999 39.3 62.1999 42 61.2999 42.1H61.1999C60.2999 42.1 59.4999 41.6 58.4999 41.1C57.5999 40.6 56.7999 40.1 55.6999 39.9L53.8999 39.7C52.8999 39.7 50.9999 39.9 49.8999 41.2C48.3999 42.8 48.7999 45.2 48.9999 46.9L49.0999 47.7L49.4999 52.5L49.9999 58C50.0999 59.3 49.0999 60.5 47.7999 60.6L46.6999 60.7L44.3999 60.9L39.5999 61.4C37.1999 61.7 35.4999 61.8 34.4999 61.8C33.4999 61.8 33.3999 61.7 33.0999 61.4C32.8999 61.2 32.4999 60.5 32.6999 58.6C32.6999 58.3 32.9999 57.8 33.1999 57.4L33.3999 57C34.1999 55.5 35.1999 53.6 35.0999 51.9C34.7999 48.9 30.4999 46.5 26.8999 46.5H26.1999C24.3999 46.7 22.4999 47.5 20.8999 48.7C19.1999 50.1 18.1999 51.8 18.3999 53.3C18.4999 55 19.8999 56.7 20.8999 58.1C21.5999 59 21.8999 59.5 22.0999 60.4C22.2999 61.4 22.1999 62.1 21.9999 62.4C21.4999 63 19.7999 63.1 18.6999 63.1C18.3634 63.0769 18.0253 63.1107 17.6999 63.2L14.1999 63.5L7.69994 64H7.49994C6.29994 64 5.19994 63 5.09994 61.8L4.79994 59L4.49994 55.8L4.19994 52.5L4.09994 51.4L3.99994 49.7V49.6C3.89994 48.8 3.79994 47.7 4.19994 47.3C4.39994 47 5.09994 46.8 5.99994 46.8L6.99994 46.9C7.29994 46.9 7.69994 47.2 8.19994 47.4L8.59994 47.6C9.99994 48.3 11.7999 49.3 13.3999 49.3H13.6999C15.1999 49.2 16.6999 48 17.7999 46C18.6999 44.3 19.1999 42.2 19.0999 40.4C18.7999 36.9 15.7999 32.6 12.5999 32.6H12.2999C10.5999 32.7 8.89994 34.1 7.49994 35.1C6.59994 35.8 6.09994 36.1 5.29994 36.3L4.59994 36.4C3.89994 36.4 3.69994 36.2 3.59994 36.1C3.09994 35.6 2.69994 35.1 2.69994 34.7L2.49994 32.8L2.39994 31.7L1.49994 21.7C1.39994 21.1 1.59994 20.4 2.09994 19.9C2.49994 19.4 3.09994 19.1 3.79994 19L6.29994 18.8L8.79994 18.6H8.99994L14.8999 18.1H15.3999C17.1999 18 20.6999 17.7 21.1999 14.6V12.8C21.0596 11.1848 20.4319 9.65039 19.3999 8.4C18.572 7.46162 17.9275 6.37616 17.4999 5.2C17.4999 4.9 17.7999 4.1 18.8999 3.2C19.9528 2.32039 21.2379 1.76466 22.5999 1.6C22.4999 1.5 22.6999 1.5 22.7999 1.5ZM22.7999 0H22.1999C20.6999 0.1 19.0999 0.8 17.6999 1.9C16.3999 3 15.5999 4.2 15.6999 5.2C15.7999 6.4 16.9999 8 17.8999 9.2C18.7804 10.2035 19.3074 11.4682 19.3999 12.8V14.3C18.9999 16.5 16.1999 16.5 14.4999 16.6L8.39994 17.1L3.49994 17.5C2.45591 17.6016 1.49355 18.1092 0.820185 18.9135C0.14682 19.7178 -0.18366 20.7544 -0.10006 21.8L0.79994 31.8C0.89994 32.8 0.89994 33.9 1.09994 34.9C1.29994 35.7 1.89994 36.5 2.49994 37.1C3.05927 37.5688 3.77032 37.8177 4.49994 37.8L5.39994 37.7C6.59994 37.5 7.29994 37 8.29994 36.2C9.49994 35.3 10.9999 34.1 12.2999 34H12.4999C14.5999 34 17.2999 37.4 17.4999 40.4C17.5999 41.9 17.1999 43.6 16.3999 45.1C15.5999 46.6 14.4999 47.5 13.4999 47.6H13.2999C12.0999 47.6 10.4999 46.8 9.19994 46.1C8.49994 45.8 7.89994 45.3 7.09994 45.2L5.99994 45.1C4.89994 45.1 3.79994 45.3 3.09994 46C2.29994 46.9 2.39994 48.4 2.49994 49.6L2.69994 52.4L3.29994 58.9L3.49994 61.7C3.59754 62.6731 4.04824 63.5767 4.76685 64.24C5.48546 64.9033 6.42218 65.2804 7.39994 65.3H7.69994L17.8999 64.4C19.3999 64.3 22.1999 64.5 23.1999 63C23.8999 62.1 23.7999 60.9 23.5999 59.8C23.3999 58.6 22.8999 57.8 22.0999 56.9C21.1999 55.7 19.9999 54.2 19.8999 52.9C19.7999 51.9 20.5999 50.7 21.8999 49.6C23.1999 48.5 24.8999 47.8 26.3999 47.7H26.9999C30.0999 47.7 33.4999 49.7 33.6999 51.7C33.7999 52.9 32.8999 54.6 32.1999 56C31.7999 56.7 31.3999 57.4 31.2999 58.2C31.1999 59.4 31.1999 61.2 32.0999 62.1C32.6999 62.7 33.1999 63 34.4999 63C36.0999 63 38.8999 62.6 44.4999 62L47.7999 61.7C48.844 61.5984 49.8063 61.0908 50.4797 60.2865C51.1531 59.4822 51.4835 58.4456 51.3999 57.4L50.4999 47.2C50.3999 45.7 49.6999 43.1 50.8999 41.8C51.5999 41.1 52.6999 40.8 53.7999 40.8L55.2999 41C57.2999 41.5 58.9999 43.3 61.1999 43.3H61.3999C63.4999 43.1 65.6999 39.3 65.3999 36.1C65.0999 33 62.4999 29.7 60.3999 29.7H60.1999C57.8999 29.9 56.4999 32.3 54.4999 33.1L53.5999 33.3L52.2999 33.4C51.4999 33.4 50.7999 33.2 50.1999 32.5C49.47 31.7861 49.0407 30.8202 48.9999 29.8L48.7999 27.6L48.2999 21.8L47.8999 17.4C47.8023 16.4269 47.3516 15.5233 46.633 14.86C45.9144 14.1967 44.9777 13.8196 43.9999 13.8H43.6999L33.7999 14.7C32.8999 14.8 31.7999 15 30.6999 15C29.0999 15 27.4999 14.6 27.1999 12.8L27.0999 11.1C27.0999 10 27.4999 9.2 27.9999 8.2C28.6999 7 29.5999 5.3 29.4999 4C29.2999 2 25.9999 0 22.7999 0V0Z" fill="#888686"/>
</g>
<defs>
<clipPath id="clip0_259_46347">
<rect width="114.4" height="65.5" fill="white"/>
</clipPath>
</defs>
</svg>
